<?xml version="1.0" encoding="UTF-8"?>
<svg width="34px" height="34px" viewBox="0 0 34 34" version="1.1" xmlns="http://www.w3.org/2000/svg" xmlns:xlink="http://www.w3.org/1999/xlink">
    <defs>
        <polygon id="path-1" points="0 0 6 0 6 6 0 6"></polygon>
        <polygon id="path-3" points="0 0 6 0 6 6 0 6"></polygon>
        <polygon id="path-5" points="0 0 6 0 6 6 0 6"></polygon>
        <polygon id="path-7" points="0 0 6 0 6 6 0 6"></polygon>
        <polygon id="path-9" points="0 0 6 0 6 6 0 6"></polygon>
        <polygon id="path-11" points="0 0 6 0 6 6 0 6"></polygon>
        <polygon id="path-13" points="0 0 6 0 6 6 0 6"></polygon>
        <polygon id="path-15" points="0 0 6 0 6 6 0 6"></polygon>
        <polygon id="path-17" points="0 0 6 0 6 6 0 6"></polygon>
        <polygon id="path-19" points="0 0 6 0 6 6 0 6"></polygon>
        <polygon id="path-21" points="0 0 6 0 6 6 0 6"></polygon>
        <polygon id="path-23" points="0 0 6 0 6 6 0 6"></polygon>
        <polygon id="path-25" points="0 0 6 0 6 6 0 6"></polygon>
        <polygon id="path-27" points="0 0 6 0 6 6 0 6"></polygon>
        <polygon id="path-29" points="0 0 6 0 6 6 0 6"></polygon>
        <polygon id="path-31" points="0 0 6 0 6 6 0 6"></polygon>
        <polygon id="path-33" points="0 0 6 0 6 6 0 6"></polygon>
        <polygon id="path-35" points="0 0 6 0 6 6 0 6"></polygon>
        <polygon id="path-37" points="0 0 6 0 6 6 0 6"></polygon>
        <polygon id="path-39" points="0 0 6 0 6 6 0 6"></polygon>
        <polygon id="path-41" points="0 0 6 0 6 6 0 6"></polygon>
        <polygon id="path-43" points="0 0 6 0 6 6 0 6"></polygon>
        <polygon id="path-45" points="0 0 6 0 6 6 0 6"></polygon>
        <polygon id="path-47" points="0 0 6 0 6 6 0 6"></polygon>
        <polygon id="path-49" points="0 0 6 0 6 6 0 6"></polygon>
    </defs>
    <g id="Page-1" stroke="none" strokeWidth="1" fill="none" fillRule="evenodd">
        <g id="colorPickerIcon-(1)">
            <g id="Group-3">
                <mask id="mask-2" fill="white">
                    <use xlink:href="#path-1"></use>
                </mask>
                <g id="Clip-2"></g>
                <polygon id="Fill-1" fill="#FD415F" mask="url(#mask-2)" points="-5 -5 11 -5 11 11 -5 11"></polygon>
            </g>
            <g id="Group-6" transform="translate(7.000000, 0.000000)">
                <mask id="mask-4" fill="white">
                    <use xlink:href="#path-3"></use>
                </mask>
                <g id="Clip-5"></g>
                <polygon id="Fill-4" fillOpacity="0.8" fill="#FD415F" mask="url(#mask-4)" points="-5 -5 11 -5 11 11 -5 11"></polygon>
            </g>
            <g id="Group-9" transform="translate(14.000000, 0.000000)">
                <mask id="mask-6" fill="white">
                    <use xlink:href="#path-5"></use>
                </mask>
                <g id="Clip-8"></g>
                <polygon id="Fill-7" fillOpacity="0.6" fill="#FD415F" mask="url(#mask-6)" points="-5 -5 11 -5 11 11 -5 11"></polygon>
            </g>
            <g id="Group-12" transform="translate(21.000000, 0.000000)">
                <mask id="mask-8" fill="white">
                    <use xlink:href="#path-7"></use>
                </mask>
                <g id="Clip-11"></g>
                <polygon id="Fill-10" fillOpacity="0.4" fill="#FD415F" mask="url(#mask-8)" points="-5 -5 11 -5 11 11 -5 11"></polygon>
            </g>
            <g id="Group-15" transform="translate(0.000000, 7.000000)">
                <mask id="mask-10" fill="white">
                    <use xlink:href="#path-9"></use>
                </mask>
                <g id="Clip-14"></g>
                <polygon id="Fill-13" fill="#F87E21" mask="url(#mask-10)" points="-5 -5 11 -5 11 11 -5 11"></polygon>
            </g>
            <g id="Group-18" transform="translate(7.000000, 7.000000)">
                <mask id="mask-12" fill="white">
                    <use xlink:href="#path-11"></use>
                </mask>
                <g id="Clip-17"></g>
                <polygon id="Fill-16" fillOpacity="0.8" fill="#F87E21" mask="url(#mask-12)" points="-5 -5 11 -5 11 11 -5 11"></polygon>
            </g>
            <g id="Group-21" transform="translate(14.000000, 7.000000)">
                <mask id="mask-14" fill="white">
                    <use xlink:href="#path-13"></use>
                </mask>
                <g id="Clip-20"></g>
                <polygon id="Fill-19" fillOpacity="0.6" fill="#F87E21" mask="url(#mask-14)" points="-5 -5 11 -5 11 11 -5 11"></polygon>
            </g>
            <g id="Group-24" transform="translate(21.000000, 7.000000)">
                <mask id="mask-16" fill="white">
                    <use xlink:href="#path-15"></use>
                </mask>
                <g id="Clip-23"></g>
                <polygon id="Fill-22" fillOpacity="0.4" fill="#F87E21" mask="url(#mask-16)" points="-5 -5 11 -5 11 11 -5 11"></polygon>
            </g>
            <g id="Group-27" transform="translate(0.000000, 14.000000)">
                <mask id="mask-18" fill="white">
                    <use xlink:href="#path-17"></use>
                </mask>
                <g id="Clip-26"></g>
                <polygon id="Fill-25" fill="#3EC671" mask="url(#mask-18)" points="-5 -5 11 -5 11 11 -5 11"></polygon>
            </g>
            <g id="Group-30" transform="translate(7.000000, 14.000000)">
                <mask id="mask-20" fill="white">
                    <use xlink:href="#path-19"></use>
                </mask>
                <g id="Clip-29"></g>
                <polygon id="Fill-28" fillOpacity="0.8" fill="#3EC671" mask="url(#mask-20)" points="-5 -5 11 -5 11 11 -5 11"></polygon>
            </g>
            <g id="Group-33" transform="translate(14.000000, 14.000000)">
                <mask id="mask-22" fill="white">
                    <use xlink:href="#path-21"></use>
                </mask>
                <g id="Clip-32"></g>
                <polygon id="Fill-31" fillOpacity="0.6" fill="#3EC671" mask="url(#mask-22)" points="-5 -5 11 -5 11 11 -5 11"></polygon>
            </g>
            <g id="Group-36" transform="translate(21.000000, 14.000000)">
                <mask id="mask-24" fill="white">
                    <use xlink:href="#path-23"></use>
                </mask>
                <g id="Clip-35"></g>
                <polygon id="Fill-34" fillOpacity="0.4" fill="#3EC671" mask="url(#mask-24)" points="-5 -5 11 -5 11 11 -5 11"></polygon>
            </g>
            <g id="Group-39" transform="translate(0.000000, 21.000000)">
                <mask id="mask-26" fill="white">
                    <use xlink:href="#path-25"></use>
                </mask>
                <g id="Clip-38"></g>
                <polygon id="Fill-37" fill="#0FB3CC" mask="url(#mask-26)" points="-5 -5 11 -5 11 11 -5 11"></polygon>
            </g>
            <g id="Group-42" transform="translate(7.000000, 21.000000)">
                <mask id="mask-28" fill="white">
                    <use xlink:href="#path-27"></use>
                </mask>
                <g id="Clip-41"></g>
                <polygon id="Fill-40" fillOpacity="0.8" fill="#0FB3CC" mask="url(#mask-28)" points="-5 -5 11 -5 11 11 -5 11"></polygon>
            </g>
            <g id="Group-45" transform="translate(14.000000, 21.000000)">
                <mask id="mask-30" fill="white">
                    <use xlink:href="#path-29"></use>
                </mask>
                <g id="Clip-44"></g>
                <polygon id="Fill-43" fillOpacity="0.6" fill="#0FB3CC" mask="url(#mask-30)" points="-5 -5 11 -5 11 11 -5 11"></polygon>
            </g>
            <g id="Group-48" transform="translate(21.000000, 21.000000)">
                <mask id="mask-32" fill="white">
                    <use xlink:href="#path-31"></use>
                </mask>
                <g id="Clip-47"></g>
                <polygon id="Fill-46" fillOpacity="0.4" fill="#0FB3CC" mask="url(#mask-32)" points="-5 -5 11 -5 11 11 -5 11"></polygon>
            </g>
            <g id="Group-51" transform="translate(0.000000, 28.000000)">
                <mask id="mask-34" fill="white">
                    <use xlink:href="#path-33"></use>
                </mask>
                <g id="Clip-50"></g>
                <polygon id="Fill-49" fill="#684BB6" mask="url(#mask-34)" points="-5 -5 11 -5 11 11 -5 11"></polygon>
            </g>
            <g id="Group-54" transform="translate(7.000000, 28.000000)">
                <mask id="mask-36" fill="white">
                    <use xlink:href="#path-35"></use>
                </mask>
                <g id="Clip-53"></g>
                <polygon id="Fill-52" fillOpacity="0.8" fill="#684BB6" mask="url(#mask-36)" points="-5 -5 11 -5 11 11 -5 11"></polygon>
            </g>
            <g id="Group-57" transform="translate(14.000000, 28.000000)">
                <mask id="mask-38" fill="white">
                    <use xlink:href="#path-37"></use>
                </mask>
                <g id="Clip-56"></g>
                <polygon id="Fill-55" fillOpacity="0.6" fill="#684BB6" mask="url(#mask-38)" points="-5 -5 11 -5 11 11 -5 11"></polygon>
            </g>
            <g id="Group-60" transform="translate(21.000000, 28.000000)">
                <mask id="mask-40" fill="white">
                    <use xlink:href="#path-39"></use>
                </mask>
                <g id="Clip-59"></g>
                <polygon id="Fill-58" fillOpacity="0.4" fill="#684BB6" mask="url(#mask-40)" points="-5 -5 11 -5 11 11 -5 11"></polygon>
            </g>
            <g id="Group-63" transform="translate(28.000000, 0.000000)">
                <mask id="mask-42" fill="white">
                    <use xlink:href="#path-41"></use>
                </mask>
                <g id="Clip-62"></g>
                <polygon id="Fill-61" fillOpacity="0.2" fill="#FD415F" mask="url(#mask-42)" points="-5 -5 11 -5 11 11 -5 11"></polygon>
            </g>
            <g id="Group-66" transform="translate(28.000000, 7.000000)">
                <mask id="mask-44" fill="white">
                    <use xlink:href="#path-43"></use>
                </mask>
                <g id="Clip-65"></g>
                <polygon id="Fill-64" fillOpacity="0.2" fill="#F87E21" mask="url(#mask-44)" points="-5 -5 11 -5 11 11 -5 11"></polygon>
            </g>
            <g id="Group-69" transform="translate(28.000000, 14.000000)">
                <mask id="mask-46" fill="white">
                    <use xlink:href="#path-45"></use>
                </mask>
                <g id="Clip-68"></g>
                <polygon id="Fill-67" fillOpacity="0.2" fill="#3EC671" mask="url(#mask-46)" points="-5 -5 11 -5 11 11 -5 11"></polygon>
            </g>
            <g id="Group-72" transform="translate(28.000000, 21.000000)">
                <mask id="mask-48" fill="white">
                    <use xlink:href="#path-47"></use>
                </mask>
                <g id="Clip-71"></g>
                <polygon id="Fill-70" fillOpacity="0.2" fill="#0FB3CC" mask="url(#mask-48)" points="-5 -5 11 -5 11 11 -5 11"></polygon>
            </g>
            <g id="Group-75" transform="translate(28.000000, 28.000000)">
                <mask id="mask-50" fill="white">
                    <use xlink:href="#path-49"></use>
                </mask>
                <g id="Clip-74"></g>
                <polygon id="Fill-73" fillOpacity="0.2" fill="#684BB6" mask="url(#mask-50)" points="-5 -5 11 -5 11 11 -5 11"></polygon>
            </g>
        </g>
    </g>
</svg>